<svg xmlns="http://www.w3.org/2000/svg" width="24" height="24" viewBox="0 0 24 24"><path fill="#fff" d="M20 4.6c-1.8-.8-3.7-1.4-5.7-1.6l-.3.6c2.3.6 3.7 1.6 3.7 1.6-1.6-.8-3.2-1.2-4.8-1.4-1.6.1-3.2.5-4.8 1.4 0 0 1.4-1 3.7-1.6l-.3-.6C7.7 3.2 5.8 3.8 4 4.6 1.3 8.8.5 12.8.9 16.7c2 1.5 3.9 2.4 5.8 3.1l1.2-1.9c-.7-.3-1.3-.7-1.9-1.1.2-.1.3-.2.5-.3 3.5 1.6 7.1 1.6 10.6 0 .2.1.3.2.5.3-.6.4-1.2.8-1.9 1.1l1.2 1.9c1.9-.7 3.8-1.6 5.8-3.1.5-4-.4-8-3.7-12.1ZM8.9 14.8c-1 0-1.9-.9-1.9-2s.8-2 1.9-2c1 0 1.9.9 1.9 2s-.8 2-1.9 2Zm6.2 0c-1 0-1.9-.9-1.9-2s.8-2 1.9-2c1 0 1.9.9 1.9 2s-.8 2-1.9 2Z"/></svg>
